<svg id="visual" viewBox="0 0 900 600" width="900" height="600" xmlns="http://www.w3.org/2000/svg" xmlns:xlink="http://www.w3.org/1999/xlink" version="1.1"><rect x="0" y="0" width="900" height="600" fill="#000"></rect><path d="M0 130L21.5 128.2C43 126.3 86 122.7 128.8 128.7C171.7 134.7 214.3 150.3 257.2 166.5C300 182.7 343 199.3 385.8 207.7C428.7 216 471.3 216 514.2 211.2C557 206.3 600 196.7 642.8 174.8C685.7 153 728.3 119 771.2 104.2C814 89.3 857 93.7 878.5 95.8L900 98L900 0L878.5 0C857 0 814 0 771.2 0C728.3 0 685.7 0 642.8 0C600 0 557 0 514.2 0C471.3 0 428.7 0 385.8 0C343 0 300 0 257.2 0C214.3 0 171.7 0 128.8 0C86 0 43 0 21.5 0L0 0Z" fill="#fff" stroke-linecap="round" stroke-linejoin="miter"></path></svg>