<svg id="visual" viewBox="0 0 900 600" width="900" height="600" xmlns="http://www.w3.org/2000/svg" xmlns:xlink="http://www.w3.org/1999/xlink" version="1.1"><rect x="0" y="0" width="900" height="600" fill="#000"></rect><path d="M0 451L21.5 439.8C43 428.7 86 406.3 128.8 400.3C171.7 394.3 214.3 404.7 257.2 419.3C300 434 343 453 385.8 470.5C428.7 488 471.3 504 514.2 508C557 512 600 504 642.8 487.8C685.7 471.7 728.3 447.3 771.2 429.2C814 411 857 399 878.5 393L900 387L900 601L878.5 601C857 601 814 601 771.2 601C728.3 601 685.7 601 642.8 601C600 601 557 601 514.2 601C471.3 601 428.7 601 385.8 601C343 601 300 601 257.2 601C214.3 601 171.7 601 128.8 601C86 601 43 601 21.5 601L0 601Z" fill="#fff" stroke-linecap="round" stroke-linejoin="miter"></path></svg>